
            <svg xmlns="http://www.w3.org/2000/svg">
                <filter id="grayscale">
                    <feColorMatrix type="saturate" values="0"/>
                </filter>
                <g filter="url(#grayscale)">
                    <svg xmlns="http://www.w3.org/2000/svg" viewBox="118.96000000000001 137.944 337.0799865722656 285.37599969482426"> <svg xmlns="http://www.w3.org/2000/svg" xmlns:xlink="http://www.w3.org/1999/xlink" version="1.1" x="237.5" y="207.944" viewBox="160 90 521.9000244140625 415.20001220703125" xml:space="preserve" height="79.55551147460938" width="100" preserveAspectRatio="xMinYMin" enable-background="new 0 0 841.9 595.3" style="overflow: visible;"><linearGradient id="SVGID_1_" gradientUnits="userSpaceOnUse" x1="646.2225" y1="504.9197" x2="195.6673" y2="54.3646" style=""><stop offset="0" style="stop-color: #E8CA90;"></stop><stop offset="8.353934e-02" style="stop-color: #DFC189;"></stop><stop offset="0.2224" style="stop-color: #C5A974;"></stop><stop offset="0.3986" style="stop-color: #9C8154;"></stop><stop offset="0.4026" style="stop-color: #9B8053;"></stop><stop offset="0.4552" style="stop-color: #AB8F60;"></stop><stop offset="0.5576" style="stop-color: #D5B881;"></stop><stop offset="0.6" style="stop-color: #E8CA90;"></stop><stop offset="0.9944" style="stop-color: #9B8053;"></stop></linearGradient><path class="st0" d="M160,90v59.8l46.9,36v-0.1l214,164.3l214-164.3v0.1l46.9-36.1V90L420.9,290.6l0,0l0,0L160,90z M160,209.3    v119.2v140.7l46.9,36V364.5V305L384,440.9l0,0l36.9,28.3l36.9-28.3l0,0L635,305v0l46.9-36.1v-59.6l-57.2,43.9L420.9,409.9    L287.4,307.2l-80.4-61.9L160,209.3z M681.9,328.5v140.7l-46.9,36V364.5L681.9,328.5z" style="fill-rule: evenodd; clip-rule: evenodd; fill: url(#SVGID_1_);"></path><path class="st1" d="M160,90v59.8l46.9,36v-0.1l214,164.3l214-164.3v0.1l46.9-36.1V90L420.9,290.6l0,0l0,0L160,90z M160,209.3    v119.2v140.7l46.9,36V364.5V305L384,440.9l0,0l36.9,28.3l36.9-28.3l0,0L635,305v0l46.9-36.1v-59.6l-57.2,43.9L420.9,409.9    L287.4,307.2l-80.4-61.9L160,209.3z M681.9,328.5v140.7l-46.9,36V364.5L681.9,328.5z" style="fill-rule: evenodd; clip-rule: evenodd; fill-opacity: 1; fill: #ffffff;"></path></svg> <svg y="344" viewBox="1.25 -0.04000000283122063 146.5399932861328 9.319999694824219" x="214.23000762939452" height="9.319999694824219" width="146.5399932861328" style="overflow: visible;"><g fill="#ffffff" style=""><path d="M1.25 0.32L3.56 0.32Q4.51 0.32 5.18 0.64Q5.86 0.96 6.22 1.56Q6.59 2.16 6.59 3.01L6.59 3.01Q6.59 3.53 6.43 4.03Q6.28 4.52 5.93 4.93Q5.59 5.33 5.04 5.57Q4.49 5.81 3.70 5.81L3.70 5.81L2.41 5.81L2.41 9L1.25 9L1.25 0.32ZM2.41 4.69L3.68 4.69Q4.20 4.69 4.54 4.52Q4.87 4.36 5.06 4.10Q5.26 3.84 5.34 3.55Q5.42 3.26 5.42 3.04L5.42 3.04Q5.42 2.77 5.34 2.49Q5.26 2.21 5.06 1.97Q4.86 1.74 4.54 1.59Q4.22 1.44 3.76 1.44L3.76 1.44L2.41 1.44L2.41 4.69ZM9.59 9L9.59 0.32L15.23 0.32L15.23 1.44L10.75 1.44L10.75 4.08L14.75 4.08L14.75 5.20L10.75 5.20L10.75 7.88L15.40 7.88L15.40 9L9.59 9ZM18.61 0.32L20.92 0.32Q21.58 0.32 22.13 0.50Q22.69 0.67 23.11 1.01Q23.52 1.36 23.75 1.85Q23.99 2.35 23.99 3.01L23.99 3.01Q23.99 3.53 23.84 4.02Q23.69 4.51 23.34 4.91Q22.99 5.32 22.43 5.56Q21.88 5.81 21.06 5.81L21.06 5.81L19.78 5.81L19.78 9L18.61 9L18.61 0.32ZM19.78 4.69L21.04 4.69Q21.55 4.69 21.89 4.54Q22.24 4.38 22.43 4.13Q22.62 3.89 22.70 3.60Q22.79 3.31 22.79 3.06L22.79 3.06Q22.79 2.80 22.70 2.51Q22.61 2.23 22.41 1.99Q22.21 1.75 21.89 1.60Q21.58 1.44 21.12 1.44L21.12 1.44L19.78 1.44L19.78 4.69ZM21.08 5.39L22.46 5.35L24.73 9L23.39 9L21.08 5.39ZM32.65 0.97L32.21 1.87Q31.76 1.64 31.24 1.48Q30.71 1.31 30.20 1.31L30.20 1.31Q29.51 1.31 29.09 1.63Q28.68 1.96 28.68 2.50L28.68 2.50Q28.68 2.90 28.94 3.19Q29.21 3.47 29.64 3.67Q30.07 3.88 30.54 4.06L30.54 4.06Q30.95 4.21 31.34 4.40Q31.74 4.60 32.06 4.88Q32.38 5.17 32.56 5.59Q32.75 6.01 32.75 6.64L32.75 6.64Q32.75 7.32 32.41 7.88Q32.06 8.45 31.43 8.77Q30.79 9.10 29.92 9.10L29.92 9.10Q29.34 9.10 28.82 8.96Q28.30 8.83 27.85 8.62Q27.41 8.41 27.06 8.18L27.06 8.18L27.58 7.27Q27.86 7.48 28.24 7.66Q28.61 7.85 29.02 7.96Q29.42 8.08 29.81 8.08L29.81 8.08Q30.22 8.08 30.62 7.93Q31.02 7.78 31.28 7.46Q31.55 7.15 31.55 6.64L31.55 6.64Q31.55 6.19 31.31 5.90Q31.08 5.60 30.70 5.39Q30.31 5.18 29.88 5.02L29.88 5.02Q29.47 4.86 29.05 4.67Q28.63 4.49 28.27 4.22Q27.91 3.95 27.70 3.55Q27.48 3.16 27.48 2.59L27.48 2.59Q27.48 1.91 27.81 1.40Q28.14 0.89 28.72 0.59Q29.29 0.30 30.04 0.28L30.04 0.28Q30.88 0.28 31.52 0.48Q32.16 0.68 32.65 0.97L32.65 0.97ZM35.36 4.67L35.36 4.67Q35.36 3.77 35.71 2.97Q36.05 2.17 36.66 1.55Q37.27 0.94 38.07 0.58Q38.87 0.23 39.79 0.23L39.79 0.23Q40.70 0.23 41.50 0.58Q42.30 0.94 42.92 1.55Q43.54 2.17 43.88 2.97Q44.23 3.77 44.23 4.67L44.23 4.67Q44.23 5.59 43.88 6.40Q43.54 7.20 42.92 7.81Q42.31 8.41 41.51 8.75Q40.70 9.10 39.79 9.10L39.79 9.10Q38.87 9.10 38.07 8.76Q37.27 8.42 36.66 7.82Q36.05 7.22 35.71 6.42Q35.36 5.62 35.36 4.67ZM36.56 4.68L36.56 4.68Q36.56 5.36 36.82 5.96Q37.07 6.55 37.51 7.01Q37.96 7.46 38.54 7.72Q39.13 7.98 39.82 7.98L39.82 7.98Q40.49 7.98 41.08 7.72Q41.66 7.46 42.10 7.01Q42.53 6.55 42.78 5.96Q43.03 5.36 43.03 4.67L43.03 4.67Q43.03 3.98 42.78 3.38Q42.53 2.77 42.08 2.32Q41.64 1.86 41.05 1.60Q40.46 1.34 39.79 1.34L39.79 1.34Q39.11 1.34 38.52 1.61Q37.93 1.87 37.49 2.33Q37.04 2.78 36.80 3.39Q36.56 4.00 36.56 4.68ZM54.94 9.28L54.90 9.28L48.19 2.47L48.53 2.56L48.55 9L47.39 9L47.39 0.06L47.45 0.06L54.08 6.89L53.81 6.83L53.78 0.32L54.94 0.32L54.94 9.28ZM58.91 9L57.77 9L61.56-0.04L61.63-0.04L65.41 9L64.08 9L61.25 1.79L62.08 1.25L58.91 9ZM59.65 6.72L59.99 5.71L63.22 5.71L63.60 6.72L59.65 6.72ZM68.24 9L68.24 0.32L69.41 0.32L69.41 7.88L73.81 7.88L73.81 9L68.24 9ZM81.26 1.44L81.26 0.32L87.02 0.32L87.02 1.44L84.70 1.44L84.70 9L83.53 9L83.53 1.44L81.26 1.44ZM90.07 0.32L92.38 0.32Q93.04 0.32 93.59 0.50Q94.15 0.67 94.57 1.01Q94.98 1.36 95.21 1.85Q95.45 2.35 95.45 3.01L95.45 3.01Q95.45 3.53 95.30 4.02Q95.15 4.51 94.80 4.91Q94.45 5.32 93.89 5.56Q93.34 5.81 92.52 5.81L92.52 5.81L91.24 5.81L91.24 9L90.07 9L90.07 0.32ZM91.24 4.69L92.50 4.69Q93.01 4.69 93.35 4.54Q93.70 4.38 93.89 4.13Q94.08 3.89 94.16 3.60Q94.25 3.31 94.25 3.06L94.25 3.06Q94.25 2.80 94.16 2.51Q94.07 2.23 93.87 1.99Q93.67 1.75 93.35 1.60Q93.04 1.44 92.58 1.44L92.58 1.44L91.24 1.44L91.24 4.69ZM92.54 5.39L93.92 5.35L96.19 9L94.85 9L92.54 5.39ZM99.46 9L98.32 9L102.11-0.04L102.18-0.04L105.96 9L104.63 9L101.80 1.79L102.62 1.25L99.46 9ZM100.20 6.72L100.54 5.71L103.76 5.71L104.15 6.72L100.20 6.72ZM108.79 9L108.79 0.32L109.96 0.32L109.96 9L108.79 9ZM121.20 9.28L121.16 9.28L114.46 2.47L114.79 2.56L114.82 9L113.65 9L113.65 0.06L113.71 0.06L120.35 6.89L120.07 6.83L120.05 0.32L121.20 0.32L121.20 9.28ZM124.90 9L124.90 0.32L126.06 0.32L126.06 9L124.90 9ZM137.30 9.28L137.27 9.28L130.56 2.47L130.90 2.56L130.92 9L129.76 9L129.76 0.06L129.82 0.06L136.45 6.89L136.18 6.83L136.15 0.32L137.30 0.32L137.30 9.28ZM147.79 4.75L147.79 8.26Q147.61 8.41 147.29 8.56Q146.96 8.71 146.57 8.83Q146.18 8.95 145.77 9.02Q145.36 9.10 145.00 9.10L145.00 9.10Q143.95 9.10 143.12 8.77Q142.28 8.45 141.69 7.87Q141.10 7.30 140.78 6.52Q140.46 5.74 140.46 4.82L140.46 4.82Q140.46 3.74 140.81 2.89Q141.17 2.03 141.79 1.43Q142.40 0.84 143.21 0.53Q144.01 0.23 144.91 0.23L144.91 0.23Q145.67 0.23 146.32 0.41Q146.96 0.59 147.46 0.86L147.46 0.86L147.06 1.93Q146.82 1.79 146.47 1.67Q146.11 1.55 145.74 1.47Q145.37 1.39 145.04 1.39L145.04 1.39Q144.28 1.39 143.65 1.63Q143.03 1.86 142.58 2.30Q142.14 2.74 141.90 3.35Q141.66 3.97 141.66 4.74L141.66 4.74Q141.66 5.45 141.90 6.04Q142.14 6.62 142.58 7.05Q143.03 7.48 143.65 7.71Q144.26 7.94 145.01 7.94L145.01 7.94Q145.45 7.94 145.88 7.85Q146.32 7.76 146.63 7.60L146.63 7.60L146.63 5.87L144.90 5.87L144.90 4.75L147.79 4.75Z" transform="translate(0, 0)"></path></g></svg> <svg y="310" viewBox="2.5999999046325684 -0.07000000774860382 197.07998657226562 19.389999389648438" x="188.96" height="19.389999389648438" width="197.07998657226562" style="overflow: visible;"><g fill="#ffffff" style=""><path d="M4.95 18.75L2.60 18.75L2.60 0.10L2.63 0.10L12.10 13.55L11.08 13.35L20.53 0.10L20.58 0.10L20.58 18.75L18.18 18.75L18.18 5.60L18.32 6.82L11.50 16.48L11.45 16.48L4.53 6.82L4.95 5.70L4.95 18.75ZM28.85 18.75L26.48 18.75L34.38-0.07L34.52-0.07L42.40 18.75L39.63 18.75L33.73 3.72L35.45 2.60L28.85 18.75ZM30.40 14L31.10 11.90L37.83 11.90L38.63 14L30.40 14ZM54.10 18.75L48.30 18.75L48.30 0.68L53.23 0.68Q55.90 0.68 57.79 1.50Q59.68 2.32 60.83 3.67Q61.98 5.02 62.51 6.66Q63.05 8.30 63.05 9.92L63.05 9.92Q63.05 11.97 62.34 13.60Q61.63 15.22 60.38 16.38Q59.13 17.52 57.51 18.14Q55.90 18.75 54.10 18.75L54.10 18.75ZM50.73 3L50.73 16.43L53.63 16.43Q55.13 16.43 56.39 15.97Q57.65 15.53 58.59 14.68Q59.53 13.82 60.05 12.59Q60.58 11.35 60.58 9.78L60.58 9.78Q60.58 8.10 60.03 6.84Q59.48 5.57 58.53 4.72Q57.58 3.88 56.38 3.44Q55.18 3 53.85 3L53.85 3L50.73 3ZM82.38 18.75L80.03 18.75L80.03 0.10L80.05 0.10L89.53 13.55L88.50 13.35L97.95 0.10L98.00 0.10L98.00 18.75L95.60 18.75L95.60 5.60L95.75 6.82L88.93 16.48L88.88 16.48L81.95 6.82L82.38 5.70L82.38 18.75ZM104.58 9.72L104.58 9.72Q104.58 7.85 105.29 6.19Q106.00 4.52 107.28 3.24Q108.55 1.95 110.21 1.21Q111.88 0.47 113.80 0.47L113.80 0.47Q115.70 0.47 117.36 1.21Q119.03 1.95 120.31 3.24Q121.60 4.52 122.33 6.19Q123.05 7.85 123.05 9.72L123.05 9.72Q123.05 11.65 122.33 13.32Q121.60 15 120.33 16.26Q119.05 17.52 117.38 18.24Q115.70 18.95 113.80 18.95L113.80 18.95Q111.88 18.95 110.21 18.25Q108.55 17.55 107.28 16.30Q106.00 15.05 105.29 13.38Q104.58 11.70 104.58 9.72ZM107.08 9.75L107.08 9.75Q107.08 11.18 107.60 12.41Q108.13 13.65 109.05 14.60Q109.98 15.55 111.20 16.09Q112.43 16.63 113.85 16.63L113.85 16.63Q115.25 16.63 116.48 16.09Q117.70 15.55 118.60 14.60Q119.50 13.65 120.03 12.41Q120.55 11.18 120.55 9.72L120.55 9.72Q120.55 8.30 120.03 7.04Q119.50 5.77 118.58 4.82Q117.65 3.88 116.43 3.34Q115.20 2.80 113.80 2.80L113.80 2.80Q112.38 2.80 111.15 3.35Q109.93 3.90 109.00 4.85Q108.08 5.80 107.58 7.06Q107.08 8.32 107.08 9.75ZM145.35 19.32L145.28 19.32L131.30 5.15L132 5.32L132.05 18.75L129.63 18.75L129.63 0.13L129.75 0.13L143.58 14.35L143 14.22L142.95 0.68L145.35 0.68L145.35 19.32ZM151.73 3L151.73 0.68L163.73 0.68L163.73 3L158.88 3L158.88 18.75L156.45 18.75L156.45 3L151.73 3ZM174.88 18.75L174.88 12.72L168.18 0.68L171.15 0.68L176.53 10.65L175.78 10.70L181.10 0.68L184.05 0.68L177.30 12.72L177.30 18.75L174.88 18.75ZM199.48 2.02L198.55 3.90Q197.63 3.42 196.53 3.07Q195.43 2.72 194.38 2.72L194.38 2.72Q192.93 2.72 192.06 3.40Q191.20 4.07 191.20 5.20L191.20 5.20Q191.20 6.05 191.75 6.64Q192.30 7.22 193.20 7.65Q194.10 8.07 195.08 8.45L195.08 8.45Q195.93 8.77 196.75 9.17Q197.58 9.57 198.24 10.17Q198.90 10.77 199.29 11.65Q199.68 12.52 199.68 13.82L199.68 13.82Q199.68 15.25 198.96 16.43Q198.25 17.60 196.93 18.27Q195.60 18.95 193.78 18.95L193.78 18.95Q192.58 18.95 191.49 18.68Q190.40 18.40 189.48 17.96Q188.55 17.52 187.83 17.05L187.83 17.05L188.90 15.15Q189.50 15.57 190.28 15.96Q191.05 16.35 191.90 16.59Q192.75 16.82 193.55 16.82L193.55 16.82Q194.40 16.82 195.24 16.51Q196.08 16.20 196.63 15.55Q197.18 14.90 197.18 13.82L197.18 13.82Q197.18 12.90 196.69 12.29Q196.20 11.68 195.40 11.24Q194.60 10.80 193.70 10.45L193.70 10.45Q192.85 10.13 191.98 9.74Q191.10 9.35 190.35 8.79Q189.60 8.22 189.15 7.40Q188.70 6.57 188.70 5.40L188.70 5.40Q188.70 3.97 189.39 2.91Q190.08 1.85 191.28 1.24Q192.48 0.63 194.03 0.57L194.03 0.57Q195.78 0.57 197.11 1Q198.45 1.43 199.48 2.02L199.48 2.02Z" transform="translate(0, 0)"></path></g></svg></svg>
                </g>
            </svg>
        